<svg clip-rule="evenodd" fill-rule="evenodd" stroke-linejoin="round" stroke-miterlimit="2" viewBox="0 0 560 400" xmlns="http://www.w3.org/2000/svg"><g fill-rule="nonzero" transform="matrix(.703125 0 0 .703125 100 143.376)"><path d="m251.259 142.825h-19.631v-34.281c-6.485 4.456-13.802 6.654-21.654 6.654-10.649 0-18.561-2.911-23.498-8.971-4.938-6-7.436-16.694-7.436-31.963 0-15.625 2.915-26.438 8.804-32.735 6.009-6.357 15.646-9.447 28.912-9.447 12.552 0 23.973 1.723 34.503 5.11zm-19.631-92.919c-4.462-1.367-9.459-2.02-14.872-2.02-6.663 0-11.422 1.723-14.099 5.228-2.618 3.564-4.045 10.337-4.045 20.378 0 9.446 1.249 15.744 3.866 19.189 2.618 3.387 7.139 5.11 13.802 5.11 8.685 0 15.348-3.565 15.348-8.021zm47.77-15.745c6.961 19.309 12.85 38.618 17.966 58.105 6.782-19.963 12.552-39.271 17.012-58.105h17.194c6.484 19.309 11.898 38.618 16.239 58.105 7.735-21.151 13.803-40.519 18.264-58.105h19.333c-8.208 27.686-17.31 54.064-27.363 78.958h-23.083l-.79-4.103c-2.634-13.244-6.524-28.899-11.583-47.228-3.569 15.744-8.508 32.913-14.992 51.331h-23.08c-7.734-28.755-16.122-55.015-25.045-78.958zm127.843-10.991c-8.686 0-11.126-2.139-11.126-10.991 0-7.647 2.34-9.618 10.31-9.737l.816-.006c8.685 0 11.122 1.842 11.122 9.743 0 8.852-2.437 10.991-11.122 10.991zm-9.759 10.991h19.634v78.958h-19.634zm89.593 0h22.782l-2.281 3.226c-12.708 17.874-21.694 28.86-26.808 32.956 4.461 2.911 16.418 18.239 31.232 42.835h-22.607l-4.795-7.241c-15.21-22.85-22.843-32.969-26.793-34.644v41.885h-19.63v-113.178h19.63v71.234c4.461-3.268 14.22-15.625 29.27-37.073z"/><g transform="translate(0 9.32681)"><path d="m125.616 151.737-27.245-27.092-.417.06v-.297l-57.942-57.213 14.278-13.784-8.388-48.123-39.798 49.312c-6.782 6.832-8.031 17.942-3.153 26.141l24.866 41.231c3.808 6.357 10.708 10.159 18.144 10.1l12.315-.119z" fill="#18b6f6"/><path d="m140.486 53.649-5.473-10.1-2.855-5.169-1.13-2.02-.119.119-14.992-25.963c-3.747-6.535-10.767-10.575-18.382-10.516l-13.146.357-39.204.119c-7.435.059-14.217 3.98-17.965 10.337l-23.855 47.292 42.653-52.936 55.92 61.431-9.935 10.041 5.949 48.064.059-.119v.119h-.119l.119.118 4.64 4.516 22.547 22.041c.951.891 2.498-.178 1.844-1.307l-13.92-27.388 24.271-44.856.773-.891c.297-.357.595-.713.833-1.069 4.759-6.476 5.413-15.15 1.487-22.22z" fill="#ac7ef4"/><path d="m102.115 66.363-56.097-61.134 7.971 47.885-14.277 13.843 58.12 57.688-5.235-47.885z" fill="#fff"/></g></g></svg>